# This file uses meters as units for non-parametric coordinates.

mtllib Awning_Large.mtl
g default
v 0.000000 0.000000 26.994015
v 332.050232 0.000000 26.994015
v 0.000000 19.240463 26.994015
v 332.050232 19.240463 26.994015
v 0.000000 104.504242 1.646489
v 332.050232 104.504242 1.646489
v 1.382935 0.000000 25.611088
v 330.667297 0.000000 25.611078
v 1.382935 102.929100 1.646489
v 330.667297 102.929100 1.646489
v 0.000000 104.504242 0.000000
v 332.050232 104.504242 0.000000
v 330.667297 102.929100 0.000000
v 1.382935 102.929100 0.000000
v 0.000000 0.000000 0.000000
v 1.382935 0.000000 0.000000
v 332.050232 0.000000 0.000000
v 330.667297 0.000000 0.000000
v 1.382935 19.240463 25.611078
v 330.667297 19.240463 25.611078
vt 0.005704 0.009279
vt 0.717113 0.009279
vt 0.717113 0.050501
vt 0.005704 0.050501
vt 0.717113 0.233176
vt 0.005704 0.233176
vt 0.920130 0.253083
vt 0.920130 0.294305
vt 0.865824 0.476981
vt 0.862296 0.476981
vt 0.862296 0.253083
vt 0.971367 0.977484
vt 0.303215 0.977483
vt 0.306178 0.974521
vt 0.968404 0.974521
vt 0.982372 0.997657
vt 0.270963 0.997657
vt 0.273926 0.994282
vt 0.979409 0.994282
vt 0.982372 0.773759
vt 0.979409 0.773759
vt 0.270963 0.773759
vt 0.273926 0.773759
vt 0.303215 0.919649
vt 0.306178 0.919649
vt 0.717114 0.236704
vt 0.005704 0.236704
vt 0.004677 0.466566
vt 0.710161 0.466566
vt 0.710161 0.470094
vt 0.004678 0.470094
vt 0.930133 0.016597
vt 0.985004 0.016597
vt 0.985004 0.237120
vt 0.981477 0.237120
vt 0.930133 0.057819
vt 0.926800 0.252532
vt 0.984633 0.252532
vt 0.984633 0.476430
vt 0.981106 0.476430
vt 0.926800 0.293754
vt 0.968404 0.919649
vt 0.971367 0.919649
vt 0.923464 0.016597
vt 0.923464 0.057819
vt 0.872121 0.237120
vt 0.868593 0.237120
vt 0.868593 0.016597
vt 0.004678 0.287265
vt 0.710161 0.287265
vt 0.004678 0.246043
vt 0.710161 0.246043
vn 0.000000 0.000000 1.000000
vn 0.000000 0.000000 1.000000
vn 0.000000 0.235716 0.971822
vn 0.000000 0.235716 0.971822
vn 0.000000 0.235716 0.971822
vn 0.000000 0.235716 0.971822
vn 0.000000 0.301829 0.953362
vn 0.000000 0.301829 0.953362
vn -1.000000 0.000000 0.000000
vn -1.000000 0.000000 0.000000
vn -1.000000 0.000000 0.000000
vn -1.000000 0.000000 0.000000
vn -1.000000 0.000000 0.000000
vn 0.000000 -1.000000 0.000000
vn 0.000000 -1.000000 0.000000
vn 0.000000 -1.000000 0.000000
vn 0.000000 -1.000000 0.000000
vn 0.000000 0.000000 -1.000000
vn 0.000000 0.000000 -1.000000
vn 0.000000 0.000000 -1.000000
vn 0.000000 0.000000 -1.000000
vn 0.000000 0.000000 -1.000000
vn 0.000000 0.000000 -1.000000
vn 0.000000 0.000000 -1.000000
vn 0.000000 0.000000 -1.000000
vn 0.000000 0.000000 -1.000000
vn 0.000000 0.000000 -1.000000
vn 0.000000 0.000000 -1.000000
vn 0.000000 0.000000 -1.000000
vn 0.000000 -1.000000 0.000000
vn 0.000000 -1.000000 0.000000
vn 0.000000 -1.000000 0.000000
vn 0.000000 -1.000000 0.000000
vn 0.000000 0.301829 0.953362
vn 0.000000 0.301829 0.953362
vn 0.000000 1.000000 0.000000
vn 0.000000 1.000000 0.000000
vn 0.000000 -0.292632 -0.956225
vn 0.000000 -0.292632 -0.956225
vn 0.000000 -1.000000 0.000000
vn 0.000000 -1.000000 0.000000
vn 1.000000 0.000000 0.000000
vn 1.000000 0.000000 0.000000
vn 1.000000 0.000000 0.000000
vn 1.000000 0.000000 0.000000
vn 1.000000 0.000000 0.000000
vn 1.000000 0.000000 0.000000
vn 1.000000 0.000000 0.000000
vn 1.000000 0.000000 0.000000
vn 1.000000 0.000000 0.000000
vn 1.000000 0.000000 0.000000
vn 0.000000 -1.000000 0.000000
vn 0.000000 -1.000000 0.000000
vn 0.000000 -1.000000 0.000000
vn 0.000000 -1.000000 0.000000
vn -1.000000 0.000000 0.000000
vn -1.000000 0.000000 0.000000
vn -1.000000 0.000000 0.000000
vn -1.000000 0.000000 0.000000
vn -1.000000 0.000000 0.000000
vn 0.000000 -0.292632 -0.956225
vn -0.000000 -0.226761 -0.973950
vn -0.000000 -0.226761 -0.973950
vn 0.000000 -0.292632 -0.956225
vn -0.000000 -0.226761 -0.973950
vn -0.000000 -0.000000 -1.000000
vn -0.000000 -0.000000 -1.000000
vn -0.000000 -0.226761 -0.973950
g Awning_Large
usemtl Awning_LargeSG
f 1/1/1 2/2/2 4/3/3 3/4/4
f 3/4/5 4/3/6 6/5/7 5/6/8
f 1/7/9 3/8/10 5/9/11 11/10/12 15/11/13
f 2/12/14 1/13/15 7/14/16 8/15/17
f 11/16/18 12/17/19 13/18/20 14/19/21
f 15/20/22 11/16/23 14/19/24 16/21/25
f 12/17/26 17/22/27 18/23/28 13/18/29
f 7/14/30 1/13/31 15/24/32 16/25/33
f 5/6/34 6/5/35 12/26/36 11/27/37
f 10/28/38 9/29/39 14/30/40 13/31/41
f 7/32/42 16/33/43 14/34/44 9/35/45 19/36/46
f 2/37/47 17/38/48 12/39/49 6/40/50 4/41/51
f 8/15/52 18/42/53 17/43/54 2/12/55
f 8/44/56 20/45/57 10/46/58 13/47/59 18/48/60
f 10/28/61 20/49/62 19/50/63 9/29/64
f 20/49/65 8/51/66 7/52/67 19/50/68
