# This file uses meters as units for non-parametric coordinates.

mtllib Building_Mid_Corner_A_LOD0.mtl
g default
v 200.000000 0.000000 0.000000
v 200.000000 300.000000 0.000000
v 200.000000 0.000000 -200.000000
v 200.000000 300.000000 -200.000000
v 0.000000 0.000000 0.000000
v 0.000000 300.000000 0.000000
v 136.888916 0.000000 -200.000000
v 136.888916 300.000000 -200.000000
v 136.888916 300.000000 -63.111118
v 136.888916 0.000000 -63.111118
v 0.000000 0.000000 -63.111134
v 0.000000 300.000000 -63.111134
vt 0.572914 -2.750647
vt 0.572922 -1.680217
vt -0.096129 -1.680217
vt -0.096137 -2.750647
vt 0.555547 -2.750647
vt 0.555547 -1.680075
vt -0.096137 -1.680075
vt -0.096137 -2.750647
vt 0.459319 0.426542
vt 1.000000 0.433165
vt 1.000042 -1.001157
vt 0.459362 -1.008541
vt -0.999986 0.433165
vt -0.456168 0.425169
vt -0.456175 -1.009098
vt -1.000014 -1.000661
vn 1.000000 0.000000 0.000000
vn 1.000000 0.000000 0.000000
vn 1.000000 0.000000 0.000000
vn 1.000000 0.000000 0.000000
vn 0.000000 0.000000 1.000000
vn 0.000000 0.000000 1.000000
vn 0.000000 0.000000 1.000000
vn 0.000000 0.000000 1.000000
vn -1.000000 0.000000 0.000000
vn -1.000000 0.000000 0.000000
vn -1.000000 0.000000 0.000000
vn -1.000000 0.000000 0.000000
vn 0.000000 0.000000 -1.000000
vn 0.000000 0.000000 -1.000000
vn 0.000000 0.000000 -1.000000
vn 0.000000 0.000000 -1.000000
g Building_Mid_Corner_A_LOD0 Building_Mid_Corner_A
usemtl Building_Mid_Corner_A_LOD0SG
f 1/1/1 3/4/2 4/3/3 2/2/4
f 5/8/5 1/5/6 2/6/7 6/7/8
usemtl Building_Mid_Corner_A_LOD0SG1
f 9/9/9 8/10/10 7/11/11 10/12/12
f 12/13/13 9/14/14 10/15/15 11/16/16
