# This file uses meters as units for non-parametric coordinates.

mtllib Building_Bottom_Straight_A_LOD0.mtl
g default
v 107.335449 80.160080 -25.698450
v 392.418457 80.160080 -25.698450
v 392.418457 296.052673 -25.698450
v 107.335449 296.052673 -25.698450
v 0.000000 0.000000 0.000000
v 0.008301 350.000000 0.000000
v 100.000000 0.000000 0.000000
v 400.000000 0.000000 0.000000
v 100.000000 302.792542 0.000000
v 400.000000 302.792542 0.000000
v 100.000000 0.000000 -13.775387
v 400.000000 0.000000 -13.775387
v 100.000000 73.480530 -13.775387
v 400.000000 73.480530 -13.775387
v 100.000000 73.480530 -21.399376
v 400.000000 73.480530 -21.399376
v 400.000000 302.792542 -21.399376
v 100.000000 302.792542 -21.399376
v 0.000000 346.937073 0.000000
v 500.000000 346.937073 0.000000
v 500.000000 0.000000 0.000000
v 500.000000 350.000000 0.000000
v 0.000488 350.000000 -1.530719
v 402.706512 0.000000 0.000000
v 402.706512 305.391174 0.000000
v 97.793457 305.390656 0.000000
v 97.793457 0.000000 0.000000
v 100.000000 0.000000 -2.127429
v 100.000000 302.792542 -2.127428
v 400.000000 302.792542 -2.127428
v 400.000000 0.000000 -2.127429
v 100.000000 73.480530 -15.037566
v 400.000000 73.480530 -15.037566
v 100.000000 71.736969 -13.775387
v 400.000000 71.736969 -13.775387
v 500.000000 350.000000 -1.389647
v 100.000000 73.480530 -20.707970
v 400.000000 73.480530 -20.707970
v 100.000000 302.792542 -20.707970
v 400.000000 302.792542 -20.707970
v 100.000000 302.792542 -29.023373
v 400.000000 302.792542 -29.023371
v 100.000000 73.480530 -29.023373
v 400.000000 73.480530 -29.023371
v 107.335449 80.160080 -21.011864
v 392.418457 80.160080 -21.011864
v 392.418457 296.052673 -21.011864
v 107.335449 296.052673 -21.011864
v 107.335449 296.052673 -28.719477
v 392.418457 296.052673 -28.719477
v 392.418457 80.160080 -28.719477
v 107.335449 80.160080 -28.719477
v 393.076172 79.580681 -29.023371
v 393.076172 296.637329 -29.023371
v 106.699219 296.637329 -29.023371
v 106.699219 79.580681 -29.023371
v 392.993164 79.653801 -20.707970
v 106.779305 79.653801 -20.707970
v 106.779305 296.563538 -20.707970
v 392.993164 296.563538 -20.707970
v 0.000000 350.000000 -28.260767
v 500.000000 350.000000 -28.260748
v 0.000000 0.000000 -50.422729
v 0.008301 350.000000 -63.111134
v 100.000000 0.000000 -50.422745
v 400.000000 0.000000 -50.422745
v 500.000000 350.000000 -63.111134
v 100.000000 302.792542 -50.422745
v 400.000000 302.792542 -50.422745
v 100.000000 0.000000 -36.647358
v 400.000000 0.000000 -36.647358
v 100.000000 73.480530 -36.647358
v 400.000000 73.480530 -36.647358
v 0.000000 350.000000 -50.422745
v 500.000000 350.000000 -50.422745
v 500.000000 0.000000 -50.422745
v 402.706512 0.000000 -50.422745
v 402.706512 305.391174 -50.422745
v 97.793457 305.390656 -50.422745
v 97.793457 0.000000 -50.422745
v 100.000000 302.792542 -48.295319
v 400.000000 302.792542 -48.295319
v 400.000000 0.000000 -48.269772
v 100.000000 73.480530 -35.385178
v 400.000000 73.480530 -35.385178
v 100.000000 71.736969 -36.647358
v 400.000000 71.736969 -36.647358
v 400.000000 0.000000 -48.320862
v 100.000000 0.000000 -48.295319
v 107.335449 80.160080 -27.545641
v 392.418457 80.160080 -27.545641
v 392.418457 296.052673 -27.545641
v 107.335449 296.052673 -27.545641
vt 0.090223 0.952179
vt 0.090223 0.245808
vt 0.583851 0.245808
vt 0.583851 0.952179
vt -1.373113 1.355647
vt -1.371853 1.359119
vt -2.626996 1.359469
vt -2.626688 1.355649
vt -1.367910 1.581231
vt -1.551611 1.610351
vt -1.372269 1.581231
vt -1.276680 -0.650493
vt -0.467044 -0.650493
vt -0.467044 -0.646134
vt -1.276680 -0.646134
vt -1.551607 1.537053
vt -1.367910 1.566169
vt -1.372269 1.566169
vt -0.756128 1.545533
vt -1.565763 1.545533
vt -1.565763 1.542377
vt -0.756128 1.542377
vt -0.794631 1.610351
vt -0.794630 1.562171
vt -1.367910 1.578075
vt -1.367910 1.562171
vt -0.803777 -0.317265
vt -0.808023 -0.311667
vt -0.808023 -1.000000
vt -0.803777 -1.000000
vt -0.205648 -0.317265
vt -0.200279 -0.311668
vt -0.200280 -1.000000
vt -0.205648 -1.000000
vt 0.000077 -0.217707
vt 0.000077 -0.209303
vt -1.000000 -0.209303
vt -1.000000 -0.217707
vt 0.000077 -1.000000
vt -1.000000 -1.000000
vt -0.431704 -0.077959
vt -0.431704 0.731679
vt -0.479884 0.731679
vt -0.479884 -0.077959
vt -0.794630 1.537049
vt -0.794630 1.585229
vt -1.367910 1.569325
vt -1.367910 1.585229
vt -1.565763 1.526473
vt -0.756128 1.526473
vt -1.276680 -0.829836
vt -0.467044 -0.829836
vt -1.551611 1.566169
vt -1.551611 1.531731
vt -0.794630 1.531731
vt -0.426385 -0.077959
vt -0.426385 0.731679
vt -0.794631 1.615669
vt -1.551611 1.615669
vt -1.551611 1.581231
vt 0.008924 0.469974
vt 0.008924 0.012601
vt 0.017643 0.022496
vt 0.017643 0.460399
vt 0.332777 0.012601
vt 0.323980 0.022496
vt 0.332777 0.469974
vt 0.323980 0.460399
vt 0.356411 0.469688
vt 0.356411 0.012599
vt 0.365099 0.022371
vt 0.365099 0.460233
vt 0.680062 0.012599
vt 0.671453 0.022371
vt 0.680062 0.469688
vt 0.671453 0.460233
vt 0.629483 0.903844
vt 0.629483 0.486129
vt 0.640726 0.486129
vt 0.640726 0.903844
vt 0.566770 0.787503
vt 0.566770 0.495595
vt 0.578013 0.495595
vt 0.578013 0.787503
vt 0.673431 0.486129
vt 0.673431 0.903844
vt 0.662187 0.903844
vt 0.662187 0.486129
vt 0.612762 0.495595
vt 0.612762 0.787503
vt 0.601518 0.787503
vt 0.601518 0.495595
vt 0.670635 0.023300
vt 0.365924 0.023300
vt 0.365924 0.459335
vt 0.670635 0.459335
vt 0.018357 0.023308
vt 0.018357 0.459614
vt 0.323258 0.459614
vt 0.323258 0.023308
vt -1.538479 1.536980
vt -1.538475 1.537108
vt -0.794630 1.537049
vt -1.276680 -0.650493
vt -1.276680 -0.646134
vt -0.467044 -0.646134
vt -0.467044 -0.650493
vt -1.372269 1.566169
vt -1.367910 1.566169
vt -0.756128 1.545533
vt -0.756128 1.542377
vt -1.565763 1.542377
vt -1.565763 1.545533
vt -0.205648 -0.317265
vt -0.205648 -1.000000
vt -0.200279 -1.000000
vt -0.200280 -0.311667
vt -0.803777 -0.317265
vt -0.808023 -0.311668
vt -0.808023 -1.000000
vt -0.803777 -1.000000
vt -1.000000 -0.217707
vt 0.000077 -0.217707
vt -1.000000 -1.000000
vt 0.000077 -1.000000
vt -0.431704 -0.077959
vt -0.479884 -0.077959
vt -0.479884 0.731679
vt -0.431704 0.731679
vt -0.794630 1.585229
vt -1.367910 1.569325
vt -1.367910 1.585229
vt -0.756128 1.526473
vt -1.565763 1.526473
vt -1.276680 -0.816705
vt -0.467044 -0.816705
vt -1.538478 1.531728
vt -1.538478 1.566165
vt -0.794630 1.531731
vt -0.426385 -0.077959
vt -0.426385 0.731679
vt -1.538481 1.537049
vt -0.794630 1.537049
vt -1.367910 1.566169
vt -1.372269 1.566169
vt -0.794630 1.585229
vt -1.367910 1.569325
vt -1.367910 1.585229
vt -1.538481 1.531731
vt -1.538481 1.566169
vt -0.794630 1.531731
vt 0.090223 0.952179
vt 0.583851 0.952179
vt 0.583851 0.245808
vt 0.090223 0.245808
vt 0.000107 0.001992
vt 0.053635 0.001992
vt 0.053635 0.998008
vt 0.000388 0.998007
vt 0.024676 0.001990
vt 0.049649 0.001990
vt 0.049646 0.998006
vt 0.024674 0.998001
vn 0.000000 0.000000 1.000000
vn 0.000000 0.000000 1.000000
vn 0.000000 0.000000 1.000000
vn 0.000000 0.000000 1.000000
vn 0.000000 0.430328 0.902673
vn 0.000000 1.000000 0.000000
vn 0.000000 1.000000 0.000000
vn 0.000000 0.430861 0.902418
vn 1.000000 0.000000 0.000000
vn 1.000000 0.000000 0.000000
vn 1.000000 0.000000 0.000000
vn 0.000000 0.000000 1.000000
vn 0.000000 0.000000 1.000000
vn 0.000000 0.586388 0.810030
vn 0.000000 0.586388 0.810030
vn -1.000000 -0.000000 0.000000
vn -1.000000 0.000000 0.000000
vn -1.000000 0.000000 0.000000
vn 0.000000 0.586388 0.810030
vn 0.000000 0.586388 0.810030
vn 0.000000 1.000000 0.000000
vn 0.000000 1.000000 0.000000
vn 1.000000 0.000000 0.000000
vn 1.000000 0.000000 0.000000
vn 1.000000 0.000000 0.000000
vn 1.000000 0.000000 0.000000
vn 1.000000 0.000000 0.000000
vn 1.000000 0.000000 0.000000
vn 1.000000 0.000000 0.000000
vn 1.000000 0.000000 0.000000
vn 1.000000 0.000000 0.000000
vn 0.000000 1.000000 0.000000
vn 0.000000 1.000000 0.000000
vn 0.000000 1.000000 0.000000
vn 0.000000 1.000000 0.000000
vn 0.272895 -0.270378 0.923268
vn 0.000000 0.000000 1.000000
vn 0.000000 0.000000 1.000000
vn 0.692542 0.000000 0.721378
vn -0.249904 -0.247599 0.936078
vn 0.000000 0.000000 1.000000
vn 0.000000 0.000000 1.000000
vn 0.272895 -0.270378 0.923268
vn 0.000000 0.000000 1.000000
vn 0.000000 0.000000 1.000000
vn -0.249904 -0.247599 0.936078
vn -0.616344 -0.000000 0.787477
vn 0.000000 0.000000 1.000000
vn 0.000000 0.430328 0.902673
vn 0.000000 0.430861 0.902418
vn 0.000000 0.000000 1.000000
vn 0.000000 0.000000 1.000000
vn 0.000000 0.000000 1.000000
vn 0.000000 0.000000 1.000000
vn 0.000000 0.000000 1.000000
vn 0.000000 0.000000 1.000000
vn 0.000000 0.000000 1.000000
vn 0.000000 0.000000 1.000000
vn 0.000000 0.000000 1.000000
vn 0.000000 0.000000 1.000000
vn 0.000000 0.000000 1.000000
vn 0.000000 0.000000 1.000000
vn 0.000000 0.000000 1.000000
vn 1.000000 0.000000 0.000000
vn 1.000000 0.000000 0.000000
vn 1.000000 0.000000 0.000000
vn 0.000000 -1.000000 0.000000
vn 0.000000 -1.000000 0.000000
vn 0.000000 -1.000000 0.000000
vn 0.000000 -1.000000 0.000000
vn -1.000000 -0.000000 0.000000
vn -1.000000 -0.000000 0.000000
vn -1.000000 0.000000 0.000000
vn -1.000000 -0.000000 0.000000
vn -1.000000 0.000000 0.000000
vn -1.000000 0.000000 0.000000
vn -1.000000 0.000000 0.000000
vn -1.000000 0.000000 0.000000
vn -1.000000 0.000000 0.000000
vn -1.000000 0.000000 0.000000
vn -1.000000 0.000000 0.000000
vn -1.000000 0.000000 0.000000
vn 0.000000 1.000000 0.000000
vn 0.000000 1.000000 0.000000
vn 0.000000 1.000000 0.000000
vn 0.000000 1.000000 0.000000
vn 0.000000 0.000000 1.000000
vn 0.000000 0.000000 1.000000
vn 0.000000 0.000000 1.000000
vn 0.000000 0.000000 1.000000
vn -1.000000 0.000000 0.000000
vn -1.000000 -0.000000 0.000000
vn -1.000000 0.000000 0.000000
vn -0.616344 -0.000000 0.787477
vn -0.249904 -0.247599 0.936078
vn -1.000000 -0.000000 0.000000
vn -1.000000 -0.000000 0.000000
vn -0.249904 -0.247599 0.936078
vn 0.272895 -0.270378 0.923268
vn 0.000000 -1.000000 0.000000
vn 0.000000 -1.000000 0.000000
vn 0.272895 -0.270378 0.923268
vn 0.692542 0.000000 0.721378
vn 1.000000 0.000000 0.000000
vn 1.000000 0.000000 0.000000
vn 1.000000 0.000000 0.000000
vn 1.000000 0.000000 0.000000
vn 1.000000 0.000000 0.000000
vn 0.000000 0.000000 1.000000
vn 0.000000 0.000000 1.000000
vn 0.000000 0.015433 0.999881
vn 0.000000 0.015846 0.999874
vn 0.000000 0.000000 1.000000
vn 0.000000 0.000000 1.000000
vn -0.016061 0.000000 0.999871
vn -0.016167 0.000000 0.999869
vn 0.000000 0.000000 1.000000
vn 0.000000 0.000000 1.000000
vn 0.000000 -0.015795 0.999875
vn 0.000000 -0.015385 0.999882
vn -0.000000 0.000000 1.000000
vn -0.000000 0.000000 1.000000
vn 0.016374 0.000000 0.999866
vn 0.016266 0.000000 0.999868
vn 0.000000 -0.000000 -1.000000
vn 0.000000 -0.000000 -1.000000
vn 0.000000 -0.015207 -0.999884
vn 0.000000 -0.015621 -0.999878
vn -0.000000 0.000000 -1.000000
vn -0.000000 0.000000 -1.000000
vn -0.016059 0.000000 -0.999871
vn -0.015953 0.000000 -0.999873
vn 0.000000 0.000000 -1.000000
vn 0.000000 0.000000 -1.000000
vn 0.000000 0.015666 -0.999877
vn 0.000000 0.015250 -0.999884
vn 0.000001 0.000000 -1.000000
vn 0.000001 0.000000 -1.000000
vn 0.016139 0.000000 -0.999870
vn 0.016248 0.000000 -0.999868
vn 0.000000 -1.000000 0.000000
vn 0.000000 -1.000000 0.000000
vn 0.000000 -0.995666 0.093006
vn 0.000000 -0.995722 0.092395
vn -1.000000 0.000000 0.000000
vn -1.000000 0.000000 0.000000
vn -0.994981 0.000000 0.100067
vn -0.994962 0.000000 0.100251
vn 0.000000 1.000000 0.000000
vn 0.000000 1.000000 0.000000
vn 0.000000 0.995787 0.091695
vn 0.000000 0.995731 0.092300
vn 1.000000 0.000000 0.000000
vn 1.000000 0.000000 0.000000
vn 0.995231 0.000000 0.097549
vn 0.995248 0.000000 0.097370
vn -0.015953 0.000000 -0.999873
vn -0.016059 0.000000 -0.999871
vn -0.419437 0.000000 -0.907785
vn -0.419437 0.000000 -0.907785
vn 0.000000 -0.015621 -0.999878
vn 0.000000 -0.015207 -0.999884
vn 0.000000 -0.461209 -0.887292
vn 0.000000 -0.461209 -0.887292
vn 0.016248 0.000000 -0.999868
vn 0.016139 0.000000 -0.999870
vn 0.431004 0.000000 -0.902350
vn 0.431004 0.000000 -0.902350
vn 0.000000 0.015250 -0.999884
vn 0.000000 0.015666 -0.999877
vn 0.000000 0.464482 -0.885583
vn 0.000000 0.464482 -0.885583
vn 0.000000 0.015846 0.999874
vn 0.000000 0.015433 0.999881
vn 0.000000 0.995731 0.092300
vn 0.000000 0.995787 0.091695
vn 0.016266 0.000000 0.999868
vn 0.016374 0.000000 0.999866
vn 0.995248 0.000000 0.097370
vn 0.995231 0.000000 0.097549
vn 0.000000 -0.015385 0.999882
vn 0.000000 -0.015795 0.999875
vn 0.000000 -0.995722 0.092395
vn 0.000000 -0.995666 0.093006
vn -0.016167 0.000000 0.999869
vn -0.016061 0.000000 0.999871
vn -0.994962 0.000000 0.100251
vn -0.994981 0.000000 0.100067
vn -1.000000 0.000000 0.000000
vn -1.000000 0.000000 0.000000
vn -1.000000 -0.000000 0.000000
vn 0.000000 0.000000 -1.000000
vn 0.000000 0.586388 -0.810030
vn 0.000000 0.586388 -0.810030
vn 0.000000 0.000000 -1.000000
vn -1.000000 0.000000 0.000000
vn -1.000000 0.000002 0.000000
vn -1.000000 0.000000 0.000000
vn -1.000000 0.000000 0.000000
vn 0.000000 0.586388 -0.810030
vn 0.000000 1.000000 0.000000
vn 0.000000 1.000000 0.000000
vn 0.000000 0.586388 -0.810030
vn 0.272895 -0.270378 -0.923268
vn 0.692541 0.000000 -0.721378
vn -0.000000 -0.000000 -1.000000
vn -0.000000 -0.000000 -1.000000
vn -0.248497 -0.247692 -0.936429
vn 0.272895 -0.270378 -0.923268
vn -0.000000 -0.000000 -1.000000
vn 0.000000 0.000000 -1.000000
vn 0.000000 0.000000 -1.000000
vn -0.614041 -0.000000 -0.789274
vn -0.248497 -0.247692 -0.936429
vn 0.000000 0.000000 -1.000000
vn 0.000000 -1.000000 0.000000
vn 0.000000 -1.000000 0.000000
vn 0.000000 -1.000000 0.000000
vn 0.000000 -1.000000 0.000000
vn 0.000000 0.000000 -1.000000
vn 0.000000 0.000000 -1.000000
vn 0.000000 0.000000 -1.000000
vn 0.000000 0.000000 -1.000000
vn -0.000000 -0.000000 -1.000000
vn -0.000000 -0.000000 -1.000000
vn 0.000000 0.000000 -1.000000
vn 0.000000 0.000000 -1.000000
vn -0.000000 -0.000000 -1.000000
vn -0.000000 -0.000000 -1.000000
vn -0.000000 -0.000000 -1.000000
vn -0.000000 -0.000000 -1.000000
vn 0.000000 -1.000000 0.000000
vn 0.000000 -1.000000 0.000000
vn 0.000000 -1.000000 0.000000
vn 0.000000 -1.000000 0.000000
vn -1.000000 0.000000 0.000000
vn -1.000000 0.000000 0.000000
vn -1.000000 -0.000000 0.000000
vn -1.000000 -0.000000 0.000000
vn -1.000000 0.000000 0.000000
vn -1.000000 0.000000 0.000000
vn -1.000000 0.000000 0.000000
vn -1.000000 0.000000 0.000000
vn -1.000000 0.000000 0.000000
vn -1.000000 0.000000 0.000000
vn -1.000000 0.000000 0.000000
vn -1.000000 0.000000 0.000000
vn 0.000000 1.000000 0.000000
vn 0.000000 1.000000 0.000000
vn 0.000000 1.000000 0.000000
vn 0.000000 1.000000 0.000000
vn 0.000000 0.000000 -1.000000
vn 0.000000 0.000000 -1.000000
vn 0.000000 0.000000 -1.000000
vn 0.000000 0.000000 -1.000000
vn -0.614041 -0.000000 -0.789274
vn -1.000000 -0.000000 0.000000
vn -1.000000 0.000000 0.000000
vn -1.000000 -0.000000 0.000000
vn -1.000000 0.000002 0.000000
vn -1.000000 0.000000 0.000000
vn -0.614041 -0.000000 -0.789274
vn -1.000000 0.000000 0.000000
vn -1.000000 -0.000000 0.000000
vn -0.248497 -0.247692 -0.936429
vn -0.248497 -0.247692 -0.936429
vn 0.000000 -1.000000 0.000000
vn 0.000000 -1.000000 0.000000
vn 0.272895 -0.270378 -0.923268
vn 1.000000 0.000000 0.000000
vn 1.000000 -0.000000 0.000000
vn 1.000000 0.000000 0.000000
vn 1.000000 0.000000 0.000000
vn 1.000000 0.000000 0.000000
vn 1.000000 -0.000000 0.000000
vn 1.000000 0.000000 0.000000
vn 1.000000 -0.000000 0.000000
vn 1.000000 -0.000000 0.000000
vn 1.000000 -0.000000 0.000000
vn 1.000000 -0.000000 0.000000
vn 1.000000 -0.000000 0.000000
vn 1.000000 -0.000000 0.000000
vn 1.000000 -0.000000 0.000000
vn 1.000000 0.000000 0.000000
vn 1.000000 0.000000 0.000000
vn 1.000000 0.000000 0.000000
vn 1.000000 0.000000 0.000000
vn 0.692541 0.000000 -0.721378
vn 0.272895 -0.270378 -0.923268
vn 1.000000 0.000000 0.000000
vn 1.000000 0.000000 0.000000
vn 0.000000 0.000000 -1.000000
vn 0.000000 0.000000 -1.000000
vn 0.000000 0.000000 -1.000000
vn 0.000000 0.000000 -1.000000
g Building_Bottom_Straight_A_LOD0 Building_Bottom_Straight_A
usemtl Building_Mid_Corner_B_LOD0SG4
f 1/1/1 2/2/2 3/3/3 4/4/4
usemtl Building_Bottom_Corner_A_LOD0SG
f 22/5/5 36/6/6 23/7/7 6/8/8
f 13/9/9 28/10/10 34/11/11
f 34/12/12 35/13/13 14/14/14 13/15/15
f 31/16/16 14/17/17 35/18/18
f 13/19/19 14/20/20 33/21/21 32/22/22
f 29/23/23 13/9/24 18/24/25
f 13/9/26 32/25/27 18/24/28
f 32/25/29 15/26/30 18/24/31
f 36/156/32 62/157/33 61/158/34 23/159/35
f 9/27/36 26/28/37 27/29/38 7/30/39
f 10/31/40 25/32/41 26/28/42 9/27/43
f 24/33/44 25/32/45 10/31/46 8/34/47
f 20/35/48 22/36/49 6/37/50 19/38/51
f 21/39/52 20/35/53 25/32/54 24/33/55
f 26/28/56 25/32/57 20/35/58 19/38/59
f 27/29/60 26/28/61 19/38/62 5/40/63
f 28/10/64 13/9/65 29/23/66
f 30/41/67 29/42/68 18/43/69 17/44/70
f 31/16/71 30/45/72 14/17/73
f 30/45/74 17/46/75 14/17/76
f 14/17/77 17/46/78 33/47/79
f 33/47/80 17/46/81 16/48/82
f 32/22/83 33/21/84 16/49/85 15/50/86
f 11/51/87 12/52/88 35/13/89 34/12/90
f 12/53/91 31/16/92 35/18/93
f 8/54/94 10/55/95 30/45/96 31/16/97
f 10/56/98 9/57/99 29/42/100 30/41/101
f 9/58/102 7/59/103 28/10/104 29/23/105
f 34/11/106 28/10/107 11/60/108
usemtl Building_Bottom_Corner_B_LOD0SG2
f 37/61/109 38/62/110 57/63/111 58/64/112
f 38/62/113 40/65/114 60/66/115 57/63/116
f 40/65/117 39/67/118 59/68/119 60/66/120
f 39/67/121 37/61/122 58/64/123 59/68/124
f 41/69/125 42/70/126 54/71/127 55/72/128
f 42/70/129 44/73/130 53/74/131 54/71/132
f 44/73/133 43/75/134 56/76/135 53/74/136
f 43/75/137 41/69/138 55/72/139 56/76/140
f 49/77/141 50/78/142 47/79/143 48/80/144
f 50/81/145 51/82/146 46/83/147 47/84/148
f 51/85/149 52/86/150 45/87/151 46/88/152
f 52/89/153 49/90/154 48/91/155 45/92/156
f 54/71/157 53/74/158 51/93/159 50/94/160
f 55/72/161 54/71/162 50/94/163 49/95/164
f 56/76/165 55/72/166 49/95/167 52/96/168
f 53/74/169 56/76/170 52/96/171 51/93/172
f 58/64/173 57/63/174 46/97/175 45/98/176
f 59/68/177 58/64/178 45/98/179 48/99/180
f 60/66/181 59/68/182 48/99/183 47/100/184
f 57/63/185 60/66/186 47/100/187 46/97/188
usemtl Building_Mid_Corner_A_LOD0SG1
f 88/101/189 83/102/190 82/103/191
f 86/104/192 72/105/193 73/106/194 87/107/195
f 88/101/196 87/108/197 73/109/198 83/102/199
f 72/110/200 84/111/201 85/112/202 73/113/203
f 68/114/204 65/115/205 80/116/206 79/117/207
f 69/118/208 68/114/209 79/117/210 78/119/211
f 77/120/212 66/121/213 69/118/214 78/119/215
f 67/160/216 75/161/217 74/162/218 64/163/219
f 76/124/220 77/120/221 78/119/222 75/122/223
f 79/117/224 74/123/225 75/122/226 78/119/227
f 80/116/228 63/125/229 74/123/230 79/117/231
f 82/126/232 42/127/233 41/128/234 81/129/235
f 83/102/236 73/109/237 82/103/238
f 82/103/239 73/109/240 42/130/241
f 73/109/242 85/131/243 42/130/244
f 85/131/245 44/132/246 42/130/247
f 84/111/248 43/133/249 44/134/250 85/112/251
f 70/135/252 86/104/253 87/107/254 71/136/255
f 66/137/256 71/138/257 88/101/258
f 71/138/259 87/108/260 88/101/261
f 66/137/262 88/101/263 82/103/264 69/139/265
f 69/140/266 82/126/267 81/129/268 68/141/269
f 89/142/270 72/144/271 86/145/272
f 89/142/273 81/143/274 72/144/275
f 81/143/276 41/146/277 72/144/278
f 72/144/279 41/146/280 84/147/281
f 84/147/282 41/146/283 43/148/284
f 89/142/285 86/145/286 70/150/287
f 65/149/288 68/151/289 81/143/290 89/142/291
usemtl Building_Mid_Corner_B_LOD0SG4
f 90/152/292 93/153/293 92/154/294 91/155/295
