# This file uses meters as units for non-parametric coordinates.

mtllib Building_Blinds_LOD1.mtl
g default
v 125.787827 0.000000 0.000000
v 0.000000 0.000000 0.000000
v 125.787827 -177.824280 0.000000
v 0.000000 -177.824280 0.000000
v 125.787827 -180.462799 -0.276103
v 0.000000 -180.462799 -0.276103
v 0.000000 0.000000 -0.552206
v 125.787827 0.000000 -0.552206
v 0.000000 -177.824280 -0.552206
v 125.787827 -177.824280 -0.552206
vt 0.289959 0.981040
vt 0.012636 0.981039
vt 0.262983 0.584022
vt 0.012636 0.575069
vt 0.040499 0.584022
vt 0.262983 0.584022
vt 0.040499 0.584022
vt 0.012636 0.575144
vt 0.262983 0.584022
vt 0.289959 0.981040
vt 0.012636 0.981039
vt 0.040499 0.584022
vt 0.040499 0.584022
vt 0.262983 0.584022
vt 0.289959 0.575817
vt 0.289959 0.575742
vn 0.000000 0.000000 1.000000
vn 0.000000 0.000000 1.000000
vn 0.000000 0.000000 1.000000
vn 0.000000 0.000000 1.000000
vn 0.000000 -0.104075 0.994570
vn 0.000000 -0.104075 0.994570
vn 0.000000 -0.104075 0.994570
vn 0.000000 -0.104075 0.994570
vn 0.000000 0.000000 -1.000000
vn 0.000000 0.000000 -1.000000
vn 0.000000 0.000000 -1.000000
vn 0.000000 0.000000 -1.000000
vn 0.000000 -0.104075 -0.994570
vn 0.000000 -0.104075 -0.994570
vn 0.000000 -0.104075 -0.994570
vn 0.000000 -0.104075 -0.994570
g Building_Blinds_LOD1 Building_Blinds
usemtl Building_Mid_Corner_B_LOD0SG2
f 4/4/1 3/16/2 1/1/3 2/2/4
f 6/7/5 5/6/6 3/3/7 4/5/8
f 10/8/9 9/15/10 7/10/11 8/11/12
f 5/13/13 6/14/14 9/9/15 10/12/16
