# This file uses meters as units for non-parametric coordinates.

mtllib Building_Window_LOD1.mtl
g default
v 6.260017 82.195221 -2.096762
v 88.939705 82.195221 -2.096762
v 6.260017 5.646362 -2.096762
v 88.939705 5.646362 -2.096762
v 95.199715 87.841583 0.000000
v 0.000000 87.841583 0.000000
v 0.000000 0.000000 0.000000
v 95.199715 0.000000 0.000000
v 0.000000 87.841583 -4.193523
v 95.199715 87.841583 -4.193523
v 0.000000 0.000000 -4.193523
v 95.199715 0.000000 -4.193523
v 6.260017 5.646362 -1.606075
v 88.939705 5.646362 -1.606075
v 6.260017 82.195221 -1.606075
v 88.939705 82.195221 -1.606075
v 6.260017 5.646362 -3.019604
v 88.939705 5.646362 -3.019604
v 6.260017 82.195221 -3.019604
v 88.939705 82.195221 -3.019604
vt 0.992046 0.994881
vt 0.782161 0.994881
vt 0.795962 0.982433
vt 0.978245 0.982433
vt 0.782161 0.801218
vt 0.795962 0.813666
vt 0.992046 0.801218
vt 0.978245 0.813666
vt 0.574677 0.983406
vt 0.756960 0.983406
vt 0.770761 0.995855
vt 0.560876 0.995855
vt 0.770761 0.802191
vt 0.756960 0.814640
vt 0.560876 0.802191
vt 0.574677 0.814640
vt 0.041374 0.930016
vt 0.041374 0.708416
vt 0.246542 0.708416
vt 0.246542 0.930016
vt 0.041374 0.930016
vt 0.246542 0.930016
vt 0.246542 0.708416
vt 0.041374 0.708416
vn 0.000000 -0.348119 0.937450
vn 0.000000 -0.348119 0.937450
vn 0.000000 -0.348119 0.937450
vn 0.000000 -0.348119 0.937450
vn 0.317603 0.000000 0.948224
vn 0.317603 0.000000 0.948224
vn 0.317603 0.000000 0.948224
vn 0.317603 0.000000 0.948224
vn 0.000000 0.348120 0.937450
vn 0.000000 0.348120 0.937450
vn 0.000000 0.348120 0.937450
vn 0.000000 0.348120 0.937450
vn -0.317603 0.000000 0.948224
vn -0.317603 0.000000 0.948224
vn -0.317603 0.000000 0.948224
vn -0.317603 0.000000 0.948224
vn 0.000000 -0.348119 -0.937450
vn 0.000000 -0.348119 -0.937450
vn 0.000000 -0.348119 -0.937450
vn 0.000000 -0.348119 -0.937450
vn 0.317603 0.000000 -0.948224
vn 0.317603 0.000000 -0.948224
vn 0.317603 0.000000 -0.948224
vn 0.317603 0.000000 -0.948224
vn 0.000000 0.348120 -0.937450
vn 0.000000 0.348120 -0.937450
vn 0.000000 0.348120 -0.937450
vn 0.000000 0.348120 -0.937450
vn -0.317603 0.000000 -0.948224
vn -0.317603 0.000000 -0.948224
vn -0.317603 0.000000 -0.948224
vn -0.317603 0.000000 -0.948224
vn 0.000000 0.000000 1.000000
vn 0.000000 0.000000 1.000000
vn 0.000000 0.000000 1.000000
vn 0.000000 0.000000 1.000000
vn 0.000000 0.000000 -1.000000
vn 0.000000 0.000000 -1.000000
vn 0.000000 0.000000 -1.000000
vn 0.000000 0.000000 -1.000000
g Building_Window_LOD1 Building_Window
usemtl Building_Mid_Corner_B_LOD0SG2
f 5/1/1 6/2/2 1/3/3 2/4/4
f 6/2/5 7/5/6 3/6/7 1/3/8
f 7/5/9 8/7/10 4/8/11 3/6/12
f 8/7/13 5/1/14 2/4/15 4/8/16
f 2/9/17 1/10/18 9/11/19 10/12/20
f 11/13/21 9/11/22 1/10/23 3/14/24
f 12/15/25 11/13/26 3/14/27 4/16/28
f 2/9/29 10/12/30 12/15/31 4/16/32
usemtl Building_Mid_Corner_B_LOD0SG4
f 13/17/33 14/18/34 16/19/35 15/20/36
f 17/21/37 19/22/38 20/23/39 18/24/40
