# This file uses meters as units for non-parametric coordinates.

mtllib Building_Top_Corner_A_LOD1.mtl
g default
v 136.888916 453.047333 -200.000000
v 200.000000 0.000000 0.000000
v 200.000000 425.252106 0.000000
v 200.000000 271.782349 0.000000
v 200.000000 0.000000 -200.000000
v 200.000000 271.782349 -200.000000
v 200.000000 425.252106 -200.000000
v 136.888916 453.047333 -63.111084
v 204.634293 425.252106 4.634277
v 204.634293 453.047333 4.634277
v 204.634293 425.252106 -200.000000
v 204.634293 453.047333 -200.000000
v 136.888916 399.999969 -200.000000
v 136.888916 399.999969 -63.111084
v 0.000000 453.047333 -63.111084
v 0.000000 0.000000 0.000000
v 0.000000 271.782349 0.000000
v 0.000000 425.252106 0.000000
v 0.000000 425.252106 4.634277
v 0.000000 453.047333 4.634277
v 0.000000 399.999969 -63.111084
v 136.888916 0.000000 -200.000000
v 136.888916 399.999969 -200.000000
v 136.888916 399.999969 -63.111084
v 136.888916 0.000000 -63.111084
v 0.000000 0.000000 -63.111084
v 0.000000 399.999969 -63.111084
vt 0.572914 -2.750647
vt 0.572914 -1.778728
vt -0.096137 -1.778728
vt -0.096137 -2.750647
vt 0.572914 -1.237942
vt -0.096137 -1.237942
vt 1.739783 0.979399
vt 1.739686 0.880870
vt 1.084312 0.880857
vt 1.085302 0.979402
vt 1.725126 0.996579
vt 1.087584 0.996578
vt -0.369629 0.385590
vt -0.027407 0.385590
vt -0.027407 0.554955
vt -0.538993 0.554954
vt -0.027407 0.603956
vt -0.369614 0.603962
vt -0.369635 0.537477
vt -0.027407 0.537493
vt -0.027407 0.554955
vt -0.538992 0.554955
vt -0.369631 0.385593
vt -0.027407 0.385590
vt 0.555547 -2.750647
vt 0.555547 -1.778728
vt -0.096137 -1.778728
vt -0.096137 -2.750647
vt 0.555547 -1.237942
vt -0.096137 -1.237942
vt 1.739782 0.979399
vt 1.739714 0.880852
vt 1.084312 0.880857
vt 1.085302 0.979402
vt 1.725126 0.996579
vt 1.087584 0.996578
vt -0.027407 0.603956
vt -0.369629 0.603956
vt -0.369629 0.537493
vt -0.027407 0.537493
vt 0.459350 0.340441
vt 1.000031 0.349347
vt 1.000000 -1.000000
vt 0.459319 -1.009668
vt -0.999986 0.348911
vt -0.456168 0.339593
vt -0.456175 -1.009759
vt -1.000014 -1.000000
vn 0.000000 1.000000 0.000000
vn 0.000000 1.000000 0.000000
vn 0.000000 1.000000 0.000000
vn 0.000000 1.000000 0.000000
vn 1.000000 0.000000 0.000000
vn 1.000000 0.000000 0.000000
vn 1.000000 0.000000 0.000000
vn 1.000000 0.000000 0.000000
vn 1.000000 0.000000 0.000000
vn 1.000000 0.000000 0.000000
vn 1.000000 0.000000 0.000000
vn 1.000000 0.000000 0.000000
vn 1.000000 0.000000 0.000000
vn 1.000000 0.000000 0.000000
vn 1.000000 0.000000 0.000000
vn 1.000000 0.000000 0.000000
vn 0.000000 -1.000000 0.000000
vn 0.000000 -1.000000 0.000000
vn 0.000000 -1.000000 0.000000
vn 0.000000 -1.000000 0.000000
vn -1.000000 0.000000 0.000000
vn -1.000000 0.000000 0.000000
vn -1.000000 0.000000 0.000000
vn -1.000000 0.000000 0.000000
vn 0.000000 1.000000 0.000000
vn 0.000000 1.000000 0.000000
vn 0.000000 1.000000 0.000000
vn 0.000000 1.000000 0.000000
vn 0.000000 0.000000 1.000000
vn 0.000000 0.000000 1.000000
vn 0.000000 0.000000 1.000000
vn 0.000000 0.000000 1.000000
vn 0.000000 0.000000 1.000000
vn 0.000000 0.000000 1.000000
vn 0.000000 0.000000 1.000000
vn 0.000000 0.000000 1.000000
vn 0.000000 0.000000 1.000000
vn 0.000000 0.000000 1.000000
vn 0.000000 0.000000 1.000000
vn 0.000000 0.000000 1.000000
vn 0.000000 -1.000000 0.000000
vn 0.000000 -1.000000 0.000000
vn 0.000000 -1.000000 0.000000
vn 0.000000 -1.000000 0.000000
vn 0.000000 0.000000 -1.000000
vn 0.000000 0.000000 -1.000000
vn 0.000000 0.000000 -1.000000
vn 0.000000 0.000000 -1.000000
vn -1.000000 0.000000 0.000000
vn -1.000000 0.000000 0.000000
vn -1.000000 0.000000 0.000000
vn -1.000000 0.000000 0.000000
vn 0.000000 0.000000 -1.000000
vn 0.000000 0.000000 -1.000000
vn 0.000000 0.000000 -1.000000
vn 0.000000 0.000000 -1.000000
g Building_Top_Corner_A_LOD1 Building_Top_Corner_A
usemtl Building_Mid_Corner_B_LOD0SG1
f 8/13/1 10/16/2 12/15/3 1/14/4
usemtl Building_Mid_Corner_A_LOD0SG
f 4/2/5 2/1/6 5/4/7 6/3/8
f 3/5/9 4/2/10 6/3/11 7/6/12
usemtl Building_Mid_Corner_B_LOD0SG1
f 10/8/13 9/7/14 11/10/15 12/9/16
f 9/7/17 3/11/18 7/12/19 11/10/20
f 13/20/21 14/19/22 8/18/23 1/17/24
f 10/22/25 8/23/26 15/24/27 20/21/28
usemtl Building_Mid_Corner_A_LOD0SG
f 16/28/29 2/25/30 4/26/31 17/27/32
f 4/26/33 3/29/34 18/30/35 17/27/36
usemtl Building_Mid_Corner_B_LOD0SG1
f 9/31/37 10/32/38 20/33/39 19/34/40
f 3/35/41 9/31/42 19/34/43 18/36/44
f 8/38/45 14/39/46 21/40/47 15/37/48
usemtl Building_Mid_Corner_A_LOD0SG1
f 24/41/49 23/42/50 22/43/51 25/44/52
f 27/45/53 24/46/54 25/47/55 26/48/56
