# This file uses meters as units for non-parametric coordinates.

mtllib Building_Bottom_Straight_B_LOD0.mtl
g default
v 0.000000 0.000000 0.000000
v 0.000000 346.937073 0.000000
v 500.000000 346.937073 0.000000
v 500.000000 0.000000 0.000000
v 0.000000 0.000000 -50.422729
v 0.000000 350.000000 -50.422745
v 0.008301 350.000000 -63.111134
v 500.008301 350.000000 -63.111134
v 500.000000 350.000000 -50.422745
v 500.000000 0.000000 -50.422729
v 0.000000 350.000000 0.000000
v 500.000000 350.000000 0.000000
v 0.000000 350.000000 -2.770490
v 500.000000 350.000000 -28.260773
v 500.000000 350.000000 -2.770490
v 0.000000 350.000000 -28.260773
vt 0.000000 -0.217707
vt 0.000000 -1.000000
vt -1.000000 -0.217707
vt -1.000000 -1.000000
vt 0.000000 -0.211983
vt 0.000000 -0.206377
vt -1.000000 -0.206377
vt -1.000000 -0.211983
vt -1.000000 -0.157337
vt 0.000000 -0.157337
vt 0.000000 -0.217707
vt -1.000000 -0.217707
vt -1.000000 -1.000000
vt 0.000000 -1.000000
vt -0.071770 1.089185
vt 0.926238 1.089185
vt 0.926238 1.114461
vt -0.071770 1.114461
vn 0.000000 0.000000 1.000000
vn 0.000000 0.000000 1.000000
vn 0.000000 0.000000 1.000000
vn 0.000000 0.000000 1.000000
vn 0.000000 -0.000000 -1.000000
vn 0.000000 -0.000000 -1.000000
vn 0.000000 -0.000000 -1.000000
vn 0.000000 -0.000000 -1.000000
vn 0.000000 -1.000000 -0.000000
vn 0.000000 -1.000000 -0.000000
vn 0.000000 -1.000000 -0.000000
vn 0.000000 -1.000000 -0.000000
vn 0.000000 0.670815 0.741625
vn 0.000000 1.000000 0.000000
vn 0.000000 1.000000 0.000000
vn 0.000000 0.670815 0.741625
vn 0.000000 1.000000 0.000000
vn 0.000000 1.000000 0.000000
vn 0.000000 1.000000 0.000000
vn 0.000000 1.000000 0.000000
vn 0.000000 0.000000 1.000000
vn 0.000000 0.670815 0.741625
vn 0.000000 0.670815 0.741625
vn 0.000000 0.000000 1.000000
g Building_Bottom_Straight_B_LOD0 Building_Bottom_Straight_B
usemtl Building_Bottom_Corner_A_LOD0SG
f 3/1/1 2/3/2 1/4/3 4/2/4
usemtl Building_Mid_Corner_A_LOD0SG1
f 6/11/5 9/12/6 10/13/7 5/14/8
f 9/15/9 6/16/10 7/17/11 8/18/12
usemtl Building_Bottom_Corner_A_LOD0SG
f 12/5/13 15/6/14 13/7/15 11/8/16
f 16/9/17 13/7/18 15/6/19 14/10/20
f 3/1/21 12/5/22 11/8/23 2/3/24
