# This file uses meters as units for non-parametric coordinates.

mtllib Interior_Wall.mtl
g default
v 0.000000 0.000000 12.500000
v 300.000000 0.000000 12.500000
v 0.000000 325.000000 12.500000
v 300.000000 325.000000 12.500000
v 0.000000 325.000000 -12.500000
v 300.000000 325.000000 -12.500000
v 0.000000 0.000000 -12.500000
v 300.000000 0.000000 -12.500000
vt 0.000000 0.000000
vt 1.000000 0.000000
vt 1.000000 1.000000
vt 0.000000 1.000000
vt 1.000000 1.000000
vt 0.000000 1.000000
vt 0.000000 0.000000
vt 1.000000 0.000000
vn 0.000000 0.000000 1.000000
vn 0.000000 0.000000 1.000000
vn 0.000000 0.000000 1.000000
vn 0.000000 0.000000 1.000000
vn 0.000000 0.000000 -1.000000
vn 0.000000 0.000000 -1.000000
vn 0.000000 0.000000 -1.000000
vn 0.000000 0.000000 -1.000000
g Interior_Wall
usemtl Building_Mid_Corner_A_LOD0SG1
f 1/1/1 2/2/2 4/3/3 3/4/4
f 5/5/5 6/6/6 8/7/7 7/8/8
