# This file uses meters as units for non-parametric coordinates.

mtllib Interior_Corner.mtl
g default
v 0.000000 -0.000015 12.500000
v 12.500000 -0.000015 12.500000
v 0.000000 325.000000 12.500000
v 12.500000 325.000000 12.500000
v 12.500000 325.000000 0.000000
v 12.500000 -0.000015 0.000000
vt 0.000000 0.000000
vt 0.038475 0.000000
vt 0.038475 1.000000
vt 0.000000 1.000000
vt 0.960191 0.000000
vt 1.000000 0.000000
vt 1.000000 1.000000
vt 0.960191 1.000000
vn 0.000000 0.000000 1.000000
vn 0.000000 0.000000 1.000000
vn 0.000000 0.000000 1.000000
vn 0.000000 0.000000 1.000000
vn 1.000000 0.000000 0.000000
vn 1.000000 0.000000 0.000000
vn 1.000000 0.000000 0.000000
vn 1.000000 0.000000 0.000000
g Interior_Corner
usemtl Building_Mid_Corner_A_LOD0SG1
f 1/1/1 2/2/2 4/3/3 3/4/4
f 2/5/5 6/6/6 5/7/7 4/8/8
