# This file uses meters as units for non-parametric coordinates.

mtllib Manhole_LOD1.mtl
g default
v 53.233219 0.000000 -17.296509
v 45.282890 0.000000 -32.899918
v 32.899956 0.000000 -45.282852
v 17.296524 0.000000 -53.233200
v 0.000031 0.000000 -55.972702
v -17.296501 0.000000 -53.233200
v -32.899910 0.000000 -45.282883
v -45.282845 0.000000 -32.899948
v -53.233192 0.000000 -17.296524
v -55.972675 0.000000 0.000000
v -53.233192 0.000000 17.296494
v -45.282860 0.000000 32.899887
v -32.899925 0.000000 45.282822
v -17.296501 0.000000 53.233200
v 0.000008 0.000000 55.972702
v 17.296516 0.000000 53.233200
v 32.899925 0.000000 45.282852
v 45.282829 0.000000 32.899918
v 53.233166 0.000000 17.296494
v 55.972675 0.000000 0.000000
v 0.000008 2.728416 0.000000
vt 0.576788 0.880355
vt 0.686398 0.920482
vt 0.670028 0.952610
vt 0.644531 0.978107
vt 0.612402 0.994477
vt 0.576788 1.000118
vt 0.541173 0.994477
vt 0.509045 0.978107
vt 0.483548 0.952610
vt 0.467178 0.920482
vt 0.461537 0.884867
vt 0.467178 0.849252
vt 0.483548 0.817124
vt 0.509045 0.791627
vt 0.541173 0.775257
vt 0.576788 0.769616
vt 0.612402 0.775257
vt 0.644531 0.791627
vt 0.670028 0.817124
vt 0.686398 0.849252
vt 0.692039 0.884867
vn 0.046305 0.998814 -0.015045
vn 0.046305 0.998814 -0.015045
vn 0.043920 0.998784 -0.022379
vn 0.034855 0.998784 -0.034855
vn 0.034855 0.998784 -0.034855
vn 0.034855 0.998784 -0.034855
vn 0.022379 0.998784 -0.043920
vn 0.022379 0.998784 -0.043920
vn 0.022379 0.998784 -0.043920
vn 0.007711 0.998784 -0.048686
vn 0.007711 0.998784 -0.048686
vn 0.007711 0.998784 -0.048686
vn -0.007711 0.998784 -0.048686
vn -0.007711 0.998784 -0.048686
vn -0.007711 0.998784 -0.048686
vn -0.022379 0.998784 -0.043921
vn -0.022379 0.998784 -0.043921
vn -0.022379 0.998784 -0.043921
vn -0.034855 0.998784 -0.034855
vn -0.034855 0.998784 -0.034855
vn -0.034855 0.998784 -0.034855
vn -0.043920 0.998784 -0.022379
vn -0.043920 0.998784 -0.022379
vn -0.043920 0.998784 -0.022379
vn -0.048686 0.998784 -0.007711
vn -0.048686 0.998784 -0.007711
vn -0.048686 0.998784 -0.007711
vn -0.048686 0.998784 0.007711
vn -0.048686 0.998784 0.007711
vn -0.048686 0.998784 0.007711
vn -0.043920 0.998784 0.022379
vn -0.043920 0.998784 0.022379
vn -0.043920 0.998784 0.022379
vn -0.034856 0.998784 0.034856
vn -0.034855 0.998784 0.034856
vn -0.034856 0.998784 0.034856
vn -0.022379 0.998784 0.043920
vn -0.022379 0.998784 0.043920
vn -0.022379 0.998784 0.043920
vn -0.007711 0.998784 0.048686
vn -0.007711 0.998784 0.048686
vn -0.007711 0.998784 0.048686
vn 0.007711 0.998784 0.048686
vn 0.007711 0.998784 0.048686
vn 0.007711 0.998784 0.048686
vn 0.022379 0.998784 0.043920
vn 0.022379 0.998784 0.043920
vn 0.022379 0.998784 0.043920
vn 0.034856 0.998784 0.034855
vn 0.034856 0.998784 0.034855
vn 0.034856 0.998784 0.034855
vn 0.043921 0.998784 0.022379
vn 0.043921 0.998784 0.022379
vn 0.043921 0.998784 0.022379
vn 0.048686 0.998784 0.007711
vn 0.048686 0.998784 0.007711
vn 0.048686 0.998784 0.007711
vn 0.046305 0.998814 -0.015045
vn 0.046305 0.998814 -0.015045
vn 0.048686 0.998784 -0.007711
g Manhole_LOD1 Manhole
usemtl Sidewalk_CornerSG1
f 21/1/1 1/2/2 2/3/3
f 21/1/4 2/3/5 3/4/6
f 21/1/7 3/4/8 4/5/9
f 21/1/10 4/5/11 5/6/12
f 21/1/13 5/6/14 6/7/15
f 21/1/16 6/7/17 7/8/18
f 21/1/19 7/8/20 8/9/21
f 21/1/22 8/9/23 9/10/24
f 21/1/25 9/10/26 10/11/27
f 21/1/28 10/11/29 11/12/30
f 21/1/31 11/12/32 12/13/33
f 21/1/34 12/13/35 13/14/36
f 21/1/37 13/14/38 14/15/39
f 21/1/40 14/15/41 15/16/42
f 21/1/43 15/16/44 16/17/45
f 21/1/46 16/17/47 17/18/48
f 21/1/49 17/18/50 18/19/51
f 21/1/52 18/19/53 19/20/54
f 21/1/55 19/20/56 20/21/57
f 1/2/58 21/1/59 20/21/60
