# This file uses meters as units for non-parametric coordinates.

mtllib Sign_LOD1.mtl
g default
v -70.248955 0.831046 62.797634
v -79.340752 0.831046 62.797634
v -70.248955 114.416763 35.150429
v -79.340744 121.932159 33.321152
v -70.248955 113.480949 31.305763
v -79.340775 120.996323 29.476488
v -70.248955 -0.104763 58.952969
v -79.340775 -0.104763 58.952969
v -70.248955 21.666241 53.653816
v -70.248955 22.602049 57.498489
v -70.248962 13.742973 55.582378
v -70.248955 14.678782 59.427048
v -70.248955 22.339046 56.417976
v -70.248955 114.153770 34.069916
v -9.117314 0.831044 62.797634
v -0.014196 0.831044 62.797634
v -9.117309 114.416763 35.150429
v -0.014226 121.932175 33.321148
v -9.117309 113.480949 31.305763
v -0.014196 120.996330 29.476482
v -9.117314 -0.104764 58.952976
v -0.014196 -0.104764 58.952976
v -9.117314 21.666241 53.653816
v -9.117314 22.602049 57.498489
v -9.117314 13.742973 55.582378
v -9.117314 14.678782 59.427048
v -9.117314 22.339046 56.417976
v -9.117309 114.153770 34.069920
v -9.106015 0.831034 -3.844671
v -0.014214 0.831034 -3.844671
v -9.106009 114.416756 23.802544
v -0.014226 121.932152 25.631819
v -9.106009 113.480934 27.647209
v -0.014196 120.996307 29.476488
v -9.106015 -0.104774 0.000000
v -0.014196 -0.104774 0.000000
v -9.106015 21.666229 5.299149
v -9.106015 22.602036 1.454477
v -9.106003 13.742961 3.370594
v -9.106015 14.678770 -0.474077
v -70.237656 0.831032 -3.844671
v -79.340775 0.831032 -3.844671
v -70.237656 114.416756 23.802544
v -79.340744 121.932159 25.631824
v -70.237656 113.480934 27.647209
v -79.340775 120.996323 29.476488
v -70.237656 -0.104776 0.000000
v -79.340775 -0.104776 0.000000
v -70.237656 21.666229 5.299149
v -70.237656 22.602036 1.454477
v -70.237656 13.742961 3.370594
v -70.237656 14.678770 -0.474077
vt 0.090189 0.108064
vt 0.090189 0.521739
vt 0.050388 0.555600
vt 0.050388 0.009974
vt 0.357807 0.521739
vt 0.397658 0.555601
vt 0.090190 0.072365
vt 0.357807 0.108064
vt 0.397658 0.009974
vt 0.357807 0.072366
vt 0.727604 0.521571
vt 0.727604 0.107896
vt 0.767405 0.009806
vt 0.767405 0.555432
vt 0.727604 0.072198
vt 0.420135 0.555432
vt 0.459986 0.521571
vt 0.459986 0.107896
vt 0.459986 0.072198
vt 0.727604 0.009806
vt 0.420135 0.009806
vt 0.459986 0.009806
vt 0.090189 0.009974
vt 0.627996 0.576521
vt 0.360378 0.576521
vt 0.854513 0.423646
vt 0.849644 0.423646
vt 0.849645 0.009979
vt 0.854513 0.009979
vt 0.070929 0.986600
vt 0.070929 0.572925
vt 0.338547 0.572925
vt 0.338547 0.986600
vt 0.357807 0.009974
vt 0.360378 0.990139
vt 0.627996 0.990139
vt 0.872054 0.713351
vt 0.872054 0.445742
vt 0.876922 0.445742
vt 0.876922 0.713351
vt 0.825368 0.423965
vt 0.825368 0.010294
vt 0.830236 0.010294
vt 0.830236 0.423965
vt 0.847777 0.712761
vt 0.847777 0.445147
vt 0.852645 0.445147
vt 0.852645 0.712761
vt 0.090189 0.108064
vt 0.090189 0.521739
vt 0.050388 0.555600
vt 0.050388 0.009974
vt 0.727604 0.521571
vt 0.727604 0.107896
vt 0.767405 0.009806
vt 0.767405 0.555432
vt 0.357807 0.521739
vt 0.397658 0.555601
vt 0.090190 0.072365
vt 0.727604 0.072198
vt 0.090189 0.009974
vt 0.727604 0.009806
vt 0.357807 0.072366
vt 0.357807 0.108064
vt 0.459986 0.107896
vt 0.459986 0.072198
vt 0.070930 0.986543
vt 0.070930 0.572925
vt 0.338547 0.572925
vt 0.338547 0.986543
vt 0.397658 0.009974
vt 0.459986 0.521571
vt 0.420135 0.555432
vt 0.420135 0.009806
vt 0.357807 0.009974
vt 0.459986 0.009806
vt 0.627996 0.990196
vt 0.360378 0.990196
vt 0.360378 0.576578
vt 0.627996 0.576578
vt 0.038962 0.963916
vt 0.038962 0.055200
vt 0.969169 0.055200
vt 0.969169 0.963916
vn 0.000000 0.236499 0.971632
vn 0.000000 0.236499 0.971632
vn 0.000000 0.236499 0.971632
vn 0.000000 0.236499 0.971632
vn 0.000000 -0.236499 -0.971632
vn 0.000000 -0.236499 -0.971632
vn 0.000000 -0.236499 -0.971632
vn 0.000000 -0.236499 -0.971632
vn 0.000000 0.236499 0.971632
vn 0.000000 0.236499 0.971632
vn 0.000000 0.236499 0.971632
vn 0.000000 0.236499 0.971632
vn 0.000000 0.236500 0.971632
vn 0.000000 0.236499 0.971632
vn 0.000000 0.236499 0.971632
vn 0.000000 -0.236499 -0.971632
vn 0.000002 -0.236499 -0.971632
vn 0.000000 -0.236499 -0.971632
vn 0.000000 0.236498 0.971632
vn 0.000000 0.236500 0.971632
vn 0.000000 0.236499 0.971632
vn 0.000002 -0.236499 -0.971632
vn 0.000000 -0.236498 -0.971632
vn 0.000000 -0.236499 -0.971632
vn 0.000000 0.236499 0.971632
vn 0.000000 0.236499 0.971632
vn 0.000000 0.236499 0.971632
vn 0.000000 0.236499 0.971632
vn 0.000000 -0.236500 -0.971632
vn 0.000000 -0.236500 -0.971632
vn 0.000000 -0.236500 -0.971631
vn 0.000000 -0.236500 -0.971631
vn 1.000000 0.000000 0.000000
vn 1.000000 0.000000 0.000000
vn 1.000000 0.000000 0.000000
vn 1.000000 0.000000 0.000000
vn -0.000000 0.236499 0.971632
vn -0.000000 0.236499 0.971632
vn -0.000000 0.236499 0.971632
vn -0.000000 0.236499 0.971632
vn 0.000000 0.236499 0.971632
vn 0.000000 0.236499 0.971632
vn 0.000000 0.236499 0.971632
vn 0.000000 0.236499 0.971632
vn -0.000000 -0.236499 -0.971632
vn -0.000000 -0.236499 -0.971632
vn -0.000000 -0.236499 -0.971632
vn -0.000000 -0.236499 -0.971632
vn -0.000000 -0.236500 -0.971632
vn -0.000000 -0.236500 -0.971631
vn -0.000000 -0.236500 -0.971631
vn -0.000000 -0.236500 -0.971631
vn -0.000002 0.236499 0.971632
vn 0.000000 0.236499 0.971632
vn 0.000000 0.236499 0.971632
vn -0.000000 -0.236499 -0.971632
vn -0.000000 -0.236499 -0.971632
vn 0.000001 -0.236500 -0.971632
vn 0.000000 0.236498 0.971632
vn 0.000000 0.236499 0.971632
vn -0.000002 0.236499 0.971632
vn 0.000001 -0.236500 -0.971632
vn -0.000000 -0.236499 -0.971632
vn 0.000000 -0.236499 -0.971632
vn 0.000000 0.971631 -0.236500
vn 0.000000 0.971631 -0.236500
vn 0.000000 0.971631 -0.236500
vn 0.000000 0.971631 -0.236500
vn -1.000000 0.000000 -0.000000
vn -1.000000 0.000000 -0.000000
vn -1.000000 0.000000 -0.000000
vn -1.000000 0.000000 -0.000000
vn -0.000000 -0.971633 0.236492
vn -0.000000 -0.971633 0.236492
vn -0.000000 -0.971633 0.236492
vn -0.000000 -0.971633 0.236492
vn 0.000000 -0.236499 -0.971632
vn 0.000000 -0.236499 -0.971632
vn 0.000000 -0.236499 -0.971632
vn 0.000000 -0.236499 -0.971632
vn -0.000000 0.236499 -0.971632
vn -0.000000 0.236499 -0.971632
vn -0.000000 0.236499 -0.971632
vn -0.000000 0.236499 -0.971632
vn -0.000000 -0.236499 0.971632
vn -0.000000 -0.236499 0.971632
vn -0.000000 -0.236499 0.971632
vn -0.000000 -0.236499 0.971632
vn -0.000000 0.236499 -0.971632
vn -0.000000 0.236499 -0.971632
vn -0.000000 0.236499 -0.971632
vn -0.000000 0.236499 -0.971632
vn 0.000000 0.236499 -0.971632
vn -0.000000 0.236499 -0.971632
vn -0.000000 0.236499 -0.971632
vn -0.000000 -0.236499 0.971632
vn 0.000000 -0.236499 0.971632
vn -0.000000 -0.236499 0.971632
vn 0.000000 0.236499 -0.971632
vn 0.000000 0.236499 -0.971632
vn -0.000000 0.236499 -0.971632
vn 0.000000 -0.236499 0.971632
vn 0.000000 -0.236499 0.971632
vn -0.000000 -0.236499 0.971632
vn 0.000000 0.236499 -0.971632
vn 0.000000 0.236499 -0.971632
vn 0.000000 0.236499 -0.971632
vn 0.000000 0.236499 -0.971632
vn 0.000000 -0.236499 0.971632
vn 0.000000 -0.236499 0.971632
vn 0.000000 -0.236499 0.971632
vn 0.000000 -0.236499 0.971632
vn 0.000000 0.236499 -0.971632
vn 0.000000 0.236499 -0.971632
vn 0.000000 0.236499 -0.971632
vn 0.000000 0.236499 -0.971632
vn -0.000000 0.236499 -0.971632
vn -0.000000 0.236499 -0.971632
vn 0.000000 0.236499 -0.971632
vn 0.000000 0.236499 -0.971632
vn 0.000000 -0.236499 0.971632
vn 0.000000 -0.236499 0.971632
vn 0.000000 -0.236499 0.971632
vn 0.000000 -0.236499 0.971632
vn 0.000000 -0.236500 0.971632
vn 0.000000 -0.236500 0.971632
vn 0.000000 -0.236500 0.971632
vn 0.000000 -0.236500 0.971632
vn -0.000000 0.236499 -0.971632
vn -0.000000 0.236499 -0.971632
vn -0.000000 0.236499 -0.971632
vn 0.000000 -0.236499 0.971632
vn 0.000000 -0.236499 0.971632
vn -0.000000 -0.236499 0.971632
vn 0.000000 0.236499 -0.971632
vn -0.000000 0.236499 -0.971632
vn -0.000000 0.236499 -0.971632
vn -0.000000 -0.236499 0.971632
vn 0.000000 -0.236499 0.971632
vn 0.000000 -0.236499 0.971632
vn 0.000000 -0.236499 0.971632
vn 0.000000 -0.236499 0.971632
vn 0.000000 -0.236499 0.971632
vn 0.000000 -0.236499 0.971632
vn 0.000000 0.236499 0.971632
vn 0.000000 0.236499 0.971632
vn 0.000000 0.236499 0.971632
vn 0.000000 0.236499 0.971632
g Sign_LOD1 Sign
usemtl Sign_LOD0SG
f 10/1/1 3/2/2 4/3/3 2/4/4
f 5/11/5 9/12/6 8/13/7 6/14/8
f 4/3/9 3/2/10 17/5/11 18/6/12
f 12/7/13 10/1/14 2/4/15
f 9/12/16 11/15/17 8/13/18
f 1/23/19 12/7/20 2/4/21
f 11/15/22 7/20/23 8/13/24
f 10/1/25 12/7/26 26/10/27 24/8/28
f 11/15/29 9/12/30 23/18/31 25/19/32
f 14/26/33 3/27/34 10/28/35 13/29/36
f 14/30/37 13/31/38 27/32/39 28/33/40
f 24/8/41 16/9/42 18/6/43 17/5/44
f 19/17/45 20/16/46 22/21/47 23/18/48
f 6/14/49 20/16/50 19/17/51 5/11/52
f 26/10/53 16/9/54 24/8/55
f 23/18/56 22/21/57 25/19/58
f 15/34/59 16/9/60 26/10/61
f 25/19/62 22/21/63 21/22/64
f 10/37/65 24/38/66 27/39/67 13/40/68
f 28/41/69 27/42/70 24/43/71 17/44/72
f 14/45/73 28/46/74 17/47/75 3/48/76
f 5/36/77 19/35/78 23/25/79 9/24/80
f 38/49/81 31/50/82 32/51/83 30/52/84
f 33/53/85 37/54/86 36/55/87 34/56/88
f 32/51/89 31/50/90 43/57/91 44/58/92
f 40/59/93 38/49/94 30/52/95
f 37/54/96 39/60/97 36/55/98
f 29/61/99 40/59/100 30/52/101
f 39/60/102 35/62/103 36/55/104
f 38/49/105 40/59/106 52/63/107 50/64/108
f 39/60/109 37/54/110 49/65/111 51/66/112
f 31/67/113 38/68/114 50/69/115 43/70/116
f 50/64/117 42/71/118 44/58/119 43/57/120
f 45/72/121 46/73/122 48/74/123 49/65/124
f 34/56/125 46/73/126 45/72/127 33/53/128
f 52/63/129 42/71/130 50/64/131
f 49/65/132 48/74/133 51/66/134
f 41/75/135 42/71/136 52/63/137
f 51/66/138 48/74/139 47/76/140
f 33/77/141 45/78/142 49/79/143 37/80/144
usemtl Sign_LOD0SG1
f 3/81/145 10/82/146 24/83/147 17/84/148
